<svg xmlns="http://www.w3.org/2000/svg" fill-rule="evenodd" stroke-linejoin="round" stroke-miterlimit="2" clip-rule="evenodd" viewBox="0 0 375 375"><path fill="#fff" d="M0 382.5h375V0H0z"/><path fill="#fff" d="M0 375h375V0H0z"/><path fill="#3d3d3d" d="M0 375h375V0H0z"/><path fill="#ffde59" fill-rule="nonzero" d="M187.5 52.3a135.04 135.04 0 00-75.12 22.78 135.52 135.52 0 00-37.3 37.3 135.16 135.16 0 00-6.82 138.86 134.78 134.78 0 0028.44 36.44 135.82 135.82 0 0033 22.04 135.04 135.04 0 0077.64 11.52 135.13 135.13 0 0092.58-58.62 135.16 135.16 0 006.82-138.86 135.03 135.03 0 00-55.5-55.5 134.89 134.89 0 00-50.49-15.31 135.35 135.35 0 00-13.25-.66z"/><path fill="#3d3d3d" fill-rule="nonzero" d="M96.2 180.15v-.42c.03-.14.06-.28.13-.38.07-.1.14-.21.25-.28.1-.07.24-.1.42-.1.14 0 .24.03.31.1s.14.17.18.28c.07.14.1.24.1.38.04.14.04.28.04.42v7.5h15.11v-7.5c0-.14 0-.28.04-.42 0-.14.03-.28.07-.38.07-.1.14-.21.24-.28.07-.07.21-.1.39-.1.17 0 .28.03.38.1.1.07.18.17.25.28.03.1.07.24.07.38.03.14.03.28.03.42v16.66c0 .14 0 .28-.03.42 0 .14-.04.28-.07.39a.65.65 0 01-.25.28c-.07.07-.2.1-.38.1a.63.63 0 01-.39-.1.65.65 0 01-.24-.28c-.04-.11-.07-.25-.07-.39-.04-.14-.04-.28-.04-.42v-8.12H97.63v8.12c0 .14 0 .28-.04.42 0 .14-.07.28-.1.39-.04.1-.1.2-.21.28-.07.07-.18.1-.32.1a.75.75 0 01-.42-.1.65.65 0 01-.24-.28c-.04-.11-.07-.25-.1-.39V180.15zM139.91 184.88a4.83 4.83 0 01-1.12 3.22c-.35.38-.77.7-1.22.94a8.6 8.6 0 01-3.18 1.01c-.6.11-1.16.15-1.68.15l6.26 6.61c.1.1.17.21.2.32.08.1.08.2.11.31 0 .14-.07.28-.17.39-.1.1-.25.17-.42.17-.14 0-.25-.03-.42-.07a.9.9 0 01-.39-.35l-6.85-7.31h-6.4v6.44c0 .17 0 .31-.04.49 0 .14-.04.28-.07.42-.07.1-.1.2-.21.28-.07.07-.21.1-.32.1-.35 0-.56-.14-.66-.38-.1-.25-.14-.56-.14-.91v-17.08-.39c0-.1.03-.17.07-.2.03 0 .07-.04.17-.04h8.37c.94 0 1.85.07 2.69.17.8.14 1.57.32 2.24.56.66.25 1.22.6 1.71 1.02.46.45.84 1.01 1.09 1.68.24.66.38 1.47.38 2.45zm-1.43-.04c0-1.15-.21-2.06-.63-2.7a3.73 3.73 0 00-1.86-1.46 8.72 8.72 0 00-3.04-.46h-8.33v8.93h6.4c1.02 0 1.97-.04 2.84-.14.91-.1 1.71-.28 2.38-.6a3.95 3.95 0 001.61-1.3c.42-.55.63-1.32.63-2.27zM178.54 195.87l5.7-15.96c.11-.25.22-.46.32-.63.1-.21.28-.32.46-.32.24 0 .38.07.49.18.07.14.1.28.1.38 0 .14 0 .25-.07.39-.03.14-.07.31-.14.45l-6.02 16.73c-.14.28-.24.49-.35.67-.1.17-.24.24-.49.24-.2 0-.38-.07-.49-.24-.1-.18-.2-.39-.31-.67l-5.7-15.85-5.68 15.85c-.1.28-.2.49-.31.67a.63.63 0 01-.53.24c-.24 0-.38-.07-.49-.24-.14-.18-.2-.39-.31-.67l-6.02-16.73-.14-.45a.8.8 0 01-.1-.39c0-.1.06-.24.13-.38.11-.1.25-.18.5-.18.2 0 .38.1.48.32.11.17.21.38.28.63l5.67 15.96 5.7-15.96c.11-.25.22-.46.32-.63.1-.21.25-.32.46-.32.28 0 .45.07.56.25.1.17.2.42.31.7l5.67 15.96zM211.16 197.4c0 .18-.04.29-.1.39-.04.07-.15.14-.22.18-.1.03-.24.03-.35.03H193.8a.48.48 0 01-.14-.1c0-.04-.04-.11-.04-.18v-17.95-.42c0-.1.04-.18.07-.25a.37.37 0 01.18-.1c.07-.04.2-.04.38-.04h16.07c.14 0 .28.04.42.07.1 0 .2.07.28.14.07.1.1.21.1.39 0 .14-.03.24-.1.31a.76.76 0 01-.28.18c-.14.03-.28.03-.42.03h-15.26v7.5h14.7c.24 0 .45.03.63.1.17.07.24.2.24.45s-.07.42-.2.5c-.15.06-.32.1-.57.1h-14.8v8.15h15.3c.13 0 .27 0 .41.04.1.03.21.1.28.17.07.07.1.18.1.32zM238.44 192.44c0 1.15-.2 2.1-.66 2.83a4.8 4.8 0 01-1.86 1.68c-.77.42-1.68.67-2.73.84-1.08.14-2.2.21-3.43.21h-9.83a.6.6 0 01-.46-.17.75.75 0 01-.14-.42v-17.78a.7.7 0 01.18-.5.8.8 0 01.49-.13h10.25c.8 0 1.54.03 2.28.14.7.07 1.36.24 1.96.42a5 5 0 011.54.84c.45.35.8.8 1.05 1.33.24.52.35 1.19.35 1.96 0 .66-.07 1.22-.28 1.68a3.7 3.7 0 01-.67 1.15c-.28.32-.6.56-.94.74-.35.17-.67.31-.98.38-.32.1-.63.14-.88.18-.28.03-.45.03-.6.03h-.1c.7.07 1.37.18 2 .35.66.18 1.22.46 1.75.77.49.35.9.8 1.22 1.37.32.56.5 1.26.5 2.1zm-2.45-8.72c0-.6-.1-1.12-.31-1.54a2.44 2.44 0 00-1.09-1.15 7.54 7.54 0 00-2.3-.7c-.99-.14-2.25-.25-3.82-.25h-7.67v7.35h8.09c1.22 0 2.27-.07 3.18-.14.88-.1 1.61-.28 2.2-.56a3.15 3.15 0 001.3-1.12c.28-.49.42-1.12.42-1.89zm1.02 8.72c0-.8-.21-1.44-.6-1.96a3.94 3.94 0 00-1.6-1.26 9.69 9.69 0 00-2.56-.67 25 25 0 00-3.36-.17h-8.09v8.5h9.63c1.5 0 2.73-.14 3.6-.38.91-.25 1.54-.6 2-.98.42-.42.7-.91.8-1.44.1-.52.18-1.08.18-1.64zM245.74 197.13c0-.35.1-.6.31-.81.21-.21.46-.31.8-.31.29 0 .57.1.78.31.24.21.35.46.35.8 0 .32-.1.57-.35.78-.21.17-.5.27-.77.27-.35 0-.6-.1-.8-.27a1.03 1.03 0 01-.32-.77zM279.41 188.45c0 1.82-.2 3.36-.7 4.58a6.93 6.93 0 01-2.13 2.9 8.44 8.44 0 01-3.54 1.62c-1.4.31-3.04.45-4.9.45H256a.27.27 0 01-.17-.07c-.07-.03-.07-.1-.1-.17v-18.17-.38c.03-.07.03-.14.1-.18.03-.03.1-.03.2-.03h12.11c1.86 0 3.5.14 4.9.45a8.9 8.9 0 013.54 1.61 6.93 6.93 0 012.13 2.9c.5 1.23.7 2.74.7 4.49zm-1.43 0c0-1.47-.18-2.73-.5-3.78a5.7 5.7 0 00-1.64-2.6 7.76 7.76 0 00-3.04-1.5c-1.23-.31-2.8-.45-4.66-.45H257.2v16.76h10.95c1.86 0 3.43-.17 4.66-.49a6.92 6.92 0 003.04-1.5 5.7 5.7 0 001.65-2.6c.31-1.08.49-2.34.49-3.84z"/></svg>